<?xml version="1.0" encoding="UTF-8"?>
<svg id="Layer_1" xmlns="http://www.w3.org/2000/svg" version="1.1" xmlns:xlink="http://www.w3.org/1999/xlink" viewBox="0 0 500 200">
  <!-- Generator: Adobe Illustrator 29.5.1, SVG Export Plug-In . SVG Version: 2.1.0 Build 141)  -->
  <defs>
    <style>
      .st0 {
        fill: #fff;
      }

      .st1 {
        fill: none;
      }

      .st2 {
        clip-path: url(#clippath-1);
      }

      .st3 {
        clip-path: url(#clippath);
      }
    </style>
    <clipPath id="clippath">
      <rect class="st1" x="21.2" y="22.6" width="457" height="154.4"/>
    </clipPath>
    <clipPath id="clippath-1">
      <rect class="st1" x="21.2" y="22.6" width="457" height="154.4"/>
    </clipPath>
  </defs>
  <polygon class="st0" points="21.2 22.6 21.2 108 77.5 108 77.5 82.6 48.4 82.6 48.4 82.6 48.4 49.8 77.5 49.8 77.5 22.6 21.2 22.6"/>
  <polygon class="st0" points="81.1 22.6 81.1 53.5 52.1 53.5 52.1 78.9 106.6 78.9 106.6 49.8 166.6 49.8 166.6 22.6 81.1 22.6"/>
  <polygon class="st0" points="139.3 140.7 52.1 140.7 52.1 168 166.6 168 166.6 111.6 139.3 111.6 139.3 140.7"/>
  <polygon class="st0" points="81.1 82.6 81.1 111.6 21.2 111.6 21.2 168 48.4 168 48.4 140.7 48.4 137.1 52.1 137.1 106.6 137.1 106.6 82.6 81.1 82.6"/>
  <polygon class="st0" points="166.6 108 166.6 53.5 110.2 53.5 110.2 137.1 135.7 137.1 135.7 108 166.6 108"/>
  <g>
    <g class="st3">
      <path class="st0" d="M464.9,101.6h-8.7v1.8h3.3v10.2h2v-10.2h3.3v-1.8h.1ZM476.2,113.7h2v-12.1h-2.5l-3.2,9-3.2-9h-2.5v12.1h2v-8.8l3.1,8.8h1.2l3.1-8.8v8.8ZM444.9,153.9c-1.6,1.1-3.8,1.6-6.5,1.6-2.9,0-5.3-.7-7.1-2.1-1.8-1.4-2.7-3.3-2.9-5.7h-7.1c0,2.5.7,4.8,2.2,6.9,1.5,2.1,3.5,3.8,6,5,2.6,1.2,5.5,1.8,8.9,1.8,4.8,0,8.6-1.1,11.6-3.4,3-2.2,4.5-5.2,4.5-9,0-2.2-.5-4.1-1.6-5.7-1.1-1.6-2.7-2.9-4.9-4-2.2-1.1-5.1-2.1-8.6-2.8-3.6-.8-6-1.6-7.4-2.5s-2-2.2-2-3.9c0-1.8.7-3.3,2.2-4.4s3.5-1.7,6.1-1.7,4.6.7,6.3,2.1c1.7,1.4,2.5,3.1,2.5,5h7.2c0-3.8-1.5-6.9-4.4-9.4-2.9-2.4-6.8-3.7-11.5-3.7s-8.2,1.2-11.1,3.5c-2.9,2.4-4.3,5.3-4.3,8.7,0,2.1.5,3.8,1.5,5.3s2.6,2.8,4.7,3.9c2.1,1.1,5,2,8.6,2.8s6.1,1.7,7.6,2.8,2.2,2.6,2.2,4.5c-.3,1.9-1.1,3.3-2.7,4.4M401.8,108.8v10.1h-7.6v5.5h7.6v25.8c0,3.5.8,6.3,2.4,8.2s4,2.9,7.2,2.9c1.8,0,3.6-.3,5.5-.8v-5.7c-1.4.3-2.6.5-3.4.5-1.7,0-2.9-.4-3.5-1.3-.7-.8-1-2.1-1-3.8v-25.9h7.8v-5.5h-7.8v-10.1h-7.2v.1ZM364.2,101.4h-7.1v59.2h7.1v-29.7c1-2,2.3-3.6,4.1-4.9,1.7-1.2,3.8-1.8,6.1-1.8,2.9,0,4.9.7,6.3,2.2,1.4,1.4,2,3.7,2.1,6.7v27.6h7.1v-27.7c-.1-9.9-4.5-14.9-13.3-14.9-5.1,0-9.2,1.9-12.3,5.8v-22.5h-.1ZM322.7,128.2c2-2.7,4.7-4,8.1-4,4.4,0,7.6,2,9.8,6v19c-2.1,4.1-5.4,6.1-9.9,6.1-3.5,0-6.2-1.3-8.1-4s-2.9-6.4-2.9-11.1c0-5.3,1-9.3,3-12M317.1,155.5c3,3.9,7,5.9,11.8,5.9s8.8-1.6,11.7-4.9v3.6c0,3.5-1,6.3-2.9,8.2-1.9,2-4.6,2.9-8.1,2.9-4.4,0-8.2-1.9-11.2-5.7l-3.7,4.3c1.5,2.2,3.7,4,6.6,5.3s5.8,1.9,8.8,1.9c5.4,0,9.7-1.6,12.9-4.7,3.2-3.1,4.8-7.4,4.8-12.7v-40.7h-6.5l-.3,4.6c-2.9-3.6-6.8-5.4-11.9-5.4s-8.9,1.9-11.9,5.8c-3,3.8-4.5,9-4.5,15.5-.1,6.8,1.4,12.1,4.4,16.1M298.1,110.7c.7.8,1.8,1.2,3.1,1.2,1.4,0,2.4-.4,3.2-1.2.7-.8,1.1-1.7,1.1-2.9s-.4-2.1-1.1-2.9-1.8-1.2-3.2-1.2-2.4.4-3.1,1.2c-.7.8-1.1,1.8-1.1,2.9,0,1.2.4,2.2,1.1,2.9M304.7,118.9h-7.1v41.7h7.1v-41.7ZM280.2,153.9c-1.6,1.1-3.8,1.6-6.5,1.6-2.9,0-5.3-.7-7.1-2.1-1.8-1.4-2.7-3.3-2.9-5.7h-7.1c0,2.5.7,4.8,2.2,6.9,1.5,2.1,3.5,3.8,6,5,2.6,1.2,5.5,1.8,8.9,1.8,4.8,0,8.6-1.1,11.6-3.4,3-2.2,4.5-5.2,4.5-9,0-2.2-.5-4.1-1.6-5.7-1.1-1.6-2.7-2.9-4.9-4-2.2-1.1-5.1-2.1-8.6-2.8-3.6-.8-6-1.6-7.4-2.5s-2-2.2-2-3.9c0-1.8.7-3.3,2.2-4.4s3.5-1.7,6.1-1.7,4.6.7,6.3,2.1c1.7,1.4,2.5,3.1,2.5,5h7.2c0-3.8-1.5-6.9-4.4-9.4-2.9-2.4-6.8-3.7-11.5-3.7s-8.2,1.2-11.1,3.5c-2.9,2.4-4.3,5.3-4.3,8.7,0,2.1.5,3.8,1.5,5.3s2.6,2.8,4.7,3.9c2.1,1.1,5,2,8.6,2.8s6.1,1.7,7.6,2.8,2.2,2.6,2.2,4.5c-.3,1.9-1.1,3.3-2.7,4.4M216.9,118.9v41.7h7.1v-29.7c1-2,2.3-3.6,4.1-4.9,1.7-1.2,3.8-1.8,6.1-1.8,2.9,0,5,.7,6.3,2.2,1.3,1.4,2,3.7,2.1,6.7v27.6h7.1v-27.7c-.1-9.9-4.5-14.9-13.3-14.9-5.1,0-9.3,2-12.5,6l-.2-5.2h-6.8ZM206.3,104.5h-7.4v56.1h7.4v-56.1Z"/>
    </g>
    <g class="st2">
      <path class="st0" d="M245.2,30.9h-7.4l13.6,56.1h6.7l12-40.9.9-4.3.9,4.3,11.6,40.9h6.7l13.6-56.1h-7.4l-8.7,38.4-1.2,7.6-1.5-6.8-10.8-39.1h-6.2l-11.2,39-1.6,6.7-1.1-7.4-8.9-38.4ZM205.4,60.3l1.9-1.5c1.8-1.4,4.2-2,7.3-2,3.4,0,6.1,1.1,8.1,3.4,2,2.3,3.1,5.3,3.1,9,0,4-.9,7.1-2.8,9.4-1.9,2.3-4.5,3.4-7.8,3.4-3,0-5.5-.8-7.3-2.4s-3-4.1-3.4-7.3h-6.7c.4,4.9,2.2,8.7,5.4,11.4,3.1,2.7,7.2,4.1,12.1,4.1,5.6,0,10-1.7,13.1-5s4.7-7.9,4.7-13.7-1.5-10.3-4.5-13.7-7.1-5.1-12.2-5.1c-3.5,0-6.6.8-9.4,2.4l1.7-15.3h22.7v-6.6h-28.7l-2.9,28,5.6,1.5Z"/>
    </g>
  </g>
</svg>